<svg xmlns="http://www.w3.org/2000/svg" xmlns:xlink="http://www.w3.org/1999/xlink" xmlns:lucid="lucid" width="720" height="600"><g transform="translate(-400 -80)" lucid:page-tab-id="0_0"><path d="M0 0h1870.87v1322.83H0z" fill="#fff"/><path d="M660 106c0-3.3 2.7-6 6-6h168c3.3 0 6 2.7 6 6v108c0 3.3-2.7 6-6 6H666c-3.3 0-6-2.7-6-6z" stroke="#5e5e5e" stroke-width="3" fill="#fff"/><use xlink:href="#a" transform="matrix(1,0,0,1,672,112) translate(10.839506172839506 38.77777777777778)"/><use xlink:href="#b" transform="matrix(1,0,0,1,672,112) translate(55.22222222222222 38.77777777777778)"/><use xlink:href="#c" transform="matrix(1,0,0,1,672,112) translate(36.67283950617284 65.44444444444446)"/><path d="M750 222.5v59.72" stroke="#5e5e5e" stroke-width="2" fill="none"/><path d="M751 222.53h-2v-1.03h2z" fill="#5e5e5e"/><path d="M750 297.48l-4.64-14.26h9.28z" stroke="#5e5e5e" stroke-width="2" fill="#5e5e5e"/><path d="M745.26 303.68c2.62-2.03 6.86-2.03 9.48 0l80.52 62.64c2.62 2.03 2.62 5.33 0 7.36l-80.52 62.64c-2.62 2.03-6.86 2.03-9.48 0l-80.52-62.64c-2.62-2.03-2.62-5.33 0-7.36z" stroke="#5e5e5e" stroke-width="3" fill="#fff"/><use xlink:href="#d" transform="matrix(1,0,0,1,665,305) translate(51.702530864197534 50.27777777777778)"/><use xlink:href="#e" transform="matrix(1,0,0,1,665,305) translate(75.15932098765433 50.27777777777778)"/><use xlink:href="#f" transform="matrix(1,0,0,1,665,305) translate(27.04203703703703 76.94444444444446)"/><path d="M420 426c0-3.3 2.7-6 6-6h168c3.3 0 6 2.7 6 6v108c0 3.3-2.7 6-6 6H426c-3.3 0-6-2.7-6-6z" stroke="#5e5e5e" stroke-width="3" fill="#fff"/><use xlink:href="#g" transform="matrix(1,0,0,1,432,432) translate(20.932098765432094 38.77777777777778)"/><use xlink:href="#h" transform="matrix(1,0,0,1,432,432) translate(84.51234567901234 38.77777777777778)"/><use xlink:href="#i" transform="matrix(1,0,0,1,432,432) translate(127.72222222222223 38.77777777777778)"/><use xlink:href="#j" transform="matrix(1,0,0,1,432,432) translate(38.58641975308643 65.44444444444446)"/><path d="M745.26 523.68c2.62-2.03 6.86-2.03 9.48 0l80.52 62.64c2.62 2.03 2.62 5.33 0 7.36l-80.52 62.64c-2.62 2.03-6.86 2.03-9.48 0l-80.52-62.64c-2.62-2.03-2.62-5.33 0-7.36z" stroke="#5e5e5e" stroke-width="3" fill="#fff"/><use xlink:href="#d" transform="matrix(1,0,0,1,665,525) translate(54.17166666666667 50.27777777777778)"/><use xlink:href="#k" transform="matrix(1,0,0,1,665,525) translate(77.62845679012347 50.27777777777778)"/><use xlink:href="#l" transform="matrix(1,0,0,1,665,525) translate(38.18401234567901 76.94444444444446)"/><path d="M751 502.22h-2v-20.9h2zm0-42.22h-2v-19.72h2z" fill="#5e5e5e"/><path d="M750.94 439.3l.06 1h-2v-1.05zM750 517.48l-4.64-14.26h9.28z" fill="#5e5e5e"/><path d="M750 520.72l-6-18.5h12zm-3.26-16.5l3.26 10.03 3.26-10.03z" fill="#5e5e5e"/><use xlink:href="#m" transform="matrix(1,0,0,1,734.6913580246913,460) translate(0 14.222222222222223)"/><path d="M857.4 591h-17.73v-2h17.72zm42.6 0h-12v-2h12z" fill="#5e5e5e"/><path d="M839.7 591h-1.13l.2-.53-.28-1.47h1.2zM915.26 590L901 594.64v-9.28z" fill="#5e5e5e"/><path d="M918.5 590l-18.5 6v-12zm-16.5 3.26l10.03-3.26-10.03-3.26z" fill="#5e5e5e"/><use xlink:href="#m" transform="matrix(1,0,0,1,857.385415693455,579.3333333333334) translate(0 14.222222222222223)"/><path d="M920 536c0-3.3 2.7-6 6-6h168c3.3 0 6 2.7 6 6v108c0 3.3-2.7 6-6 6H926c-3.3 0-6-2.7-6-6z" stroke="#5e5e5e" stroke-width="3" fill="#fff"/><use xlink:href="#g" transform="matrix(1,0,0,1,932,542) translate(20.932098765432094 38.77777777777778)"/><use xlink:href="#h" transform="matrix(1,0,0,1,932,542) translate(84.51234567901234 38.77777777777778)"/><use xlink:href="#i" transform="matrix(1,0,0,1,932,542) translate(127.72222222222223 38.77777777777778)"/><use xlink:href="#n" transform="matrix(1,0,0,1,932,542) translate(58.27777777777778 65.44444444444446)"/><path d="M511 583.87l.7 2.64 1.8 1.8 2.63.7h25.58v2h-25.83l-3.42-.92-2.53-2.53-.92-3.42V560h2zM660.33 589v2h-79.2v-2z" fill="#5e5e5e"/><path d="M661.24 589.53l.27 1.47h-1.2v-2h1.13zM514.64 559h-9.28l4.64-14.26z" fill="#5e5e5e"/><path d="M516 560h-12l6-18.5zm-9.26-2h6.52L510 547.97z" fill="#5e5e5e"/><g><use xlink:href="#o" transform="matrix(1,0,0,1,541.7097219243211,579.3333333333334) translate(0 14.222222222222223)"/></g><path d="M541.7 371h-25.57l-2.64.7-1.8 1.8-.7 2.63V400h-2v-24.13l.92-3.42 2.53-2.53 3.42-.92h25.84zm118.63 0h-79.2v-2h79.2z" fill="#5e5e5e"/><path d="M661.24 369.53l.27 1.47h-1.2v-2h1.13zM510 415.26L505.36 401h9.28z" fill="#5e5e5e"/><path d="M510 418.5l-6-18.5h12zm-3.26-16.5l3.26 10.03 3.26-10.03z" fill="#5e5e5e"/><g><use xlink:href="#o" transform="matrix(1,0,0,1,541.7097219243211,359.3333333333333) translate(0 14.222222222222223)"/></g><defs><path fill="#333" d="M101-251c82-7 93 87 43 132L82-64C71-53 59-42 53-27h129V0H18c2-99 128-94 128-182 0-28-16-43-45-43s-46 15-49 41l-32-3c6-41 34-60 81-64" id="p"/><path fill="#333" d="M63-220v92h138v28H63V0H30v-248h175v28H63" id="q"/><path fill="#333" d="M205 0l-28-72H64L36 0H1l101-248h38L239 0h-34zm-38-99l-47-123c-12 45-31 82-46 123h93" id="r"/><g id="a"><use transform="matrix(0.06172839506172839,0,0,0.06172839506172839,0,0)" xlink:href="#p"/><use transform="matrix(0.06172839506172839,0,0,0.06172839506172839,12.345679012345679,0)" xlink:href="#q"/><use transform="matrix(0.06172839506172839,0,0,0.06172839506172839,24.629629629629626,0)" xlink:href="#r"/></g><path fill="#333" d="M233-177c-1 41-23 64-60 70L243 0h-38l-65-103H63V0H30v-248c88 3 205-21 203 71zM63-129c60-2 137 13 137-47 0-61-80-42-137-45v92" id="s"/><path fill="#333" d="M100-194c63 0 86 42 84 106H49c0 40 14 67 53 68 26 1 43-12 49-29l28 8c-11 28-37 45-77 45C44 4 14-33 15-96c1-61 26-98 85-98zm52 81c6-60-76-77-97-28-3 7-6 17-6 28h103" id="t"/><path fill="#333" d="M145-31C134-9 116 4 85 4 32 4 16-35 15-94c0-59 17-99 70-100 32-1 48 14 60 33 0-11-1-24 2-32h30l-1 268h-32zM93-21c41 0 51-33 51-76s-8-73-50-73c-40 0-46 35-46 75s5 74 45 74" id="u"/><path fill="#333" d="M84 4C-5 8 30-112 23-190h32v120c0 31 7 50 39 49 72-2 45-101 50-169h31l1 190h-30c-1-10 1-25-2-33-11 22-28 36-60 37" id="v"/><path fill="#333" d="M24-231v-30h32v30H24zM24 0v-190h32V0H24" id="w"/><path fill="#333" d="M114-163C36-179 61-72 57 0H25l-1-190h30c1 12-1 29 2 39 6-27 23-49 58-41v29" id="x"/><path fill="#333" d="M85-194c31 0 48 13 60 33l-1-100h32l1 261h-30c-2-10 0-23-3-31C134-8 116 4 85 4 32 4 16-35 15-94c0-66 23-100 70-100zm9 24c-40 0-46 34-46 75 0 40 6 74 45 74 42 0 51-32 51-76 0-42-9-74-50-73" id="y"/><g id="b"><use transform="matrix(0.06172839506172839,0,0,0.06172839506172839,0,0)" xlink:href="#s"/><use transform="matrix(0.06172839506172839,0,0,0.06172839506172839,15.987654320987653,0)" xlink:href="#t"/><use transform="matrix(0.06172839506172839,0,0,0.06172839506172839,28.333333333333332,0)" xlink:href="#u"/><use transform="matrix(0.06172839506172839,0,0,0.06172839506172839,40.67901234567901,0)" xlink:href="#v"/><use transform="matrix(0.06172839506172839,0,0,0.06172839506172839,53.02469135802469,0)" xlink:href="#w"/><use transform="matrix(0.06172839506172839,0,0,0.06172839506172839,57.901234567901234,0)" xlink:href="#x"/><use transform="matrix(0.06172839506172839,0,0,0.06172839506172839,65.24691358024691,0)" xlink:href="#t"/><use transform="matrix(0.06172839506172839,0,0,0.06172839506172839,77.5925925925926,0)" xlink:href="#y"/></g><path fill="#333" d="M135-143c-3-34-86-38-87 0 15 53 115 12 119 90S17 21 10-45l28-5c4 36 97 45 98 0-10-56-113-15-118-90-4-57 82-63 122-42 12 7 21 19 24 35" id="z"/><path fill="#333" d="M59-47c-2 24 18 29 38 22v24C64 9 27 4 27-40v-127H5v-23h24l9-43h21v43h35v23H59v120" id="A"/><g id="c"><use transform="matrix(0.06172839506172839,0,0,0.06172839506172839,0,0)" xlink:href="#s"/><use transform="matrix(0.06172839506172839,0,0,0.06172839506172839,15.987654320987653,0)" xlink:href="#t"/><use transform="matrix(0.06172839506172839,0,0,0.06172839506172839,28.333333333333332,0)" xlink:href="#u"/><use transform="matrix(0.06172839506172839,0,0,0.06172839506172839,40.67901234567901,0)" xlink:href="#v"/><use transform="matrix(0.06172839506172839,0,0,0.06172839506172839,53.02469135802469,0)" xlink:href="#t"/><use transform="matrix(0.06172839506172839,0,0,0.06172839506172839,65.37037037037037,0)" xlink:href="#z"/><use transform="matrix(0.06172839506172839,0,0,0.06172839506172839,76.48148148148148,0)" xlink:href="#A"/></g><path fill="#333" d="M33 0v-248h34V0H33" id="B"/><g id="d"><use transform="matrix(0.06172839506172839,0,0,0.06172839506172839,0,0)" xlink:href="#B"/><use transform="matrix(0.06172839506172839,0,0,0.06172839506172839,6.172839506172839,0)" xlink:href="#z"/></g><g id="e"><use transform="matrix(0.06172839506172839,0,0,0.06172839506172839,0,0)" xlink:href="#v"/><use transform="matrix(0.06172839506172839,0,0,0.06172839506172839,12.345679012345679,0)" xlink:href="#z"/><use transform="matrix(0.06172839506172839,0,0,0.06172839506172839,23.45679012345679,0)" xlink:href="#t"/><use transform="matrix(0.06172839506172839,0,0,0.06172839506172839,35.80246913580247,0)" xlink:href="#x"/></g><path fill="#333" d="M141-36C126-15 110 5 73 4 37 3 15-17 15-53c-1-64 63-63 125-63 3-35-9-54-41-54-24 1-41 7-42 31l-33-3c5-37 33-52 76-52 45 0 72 20 72 64v82c-1 20 7 32 28 27v20c-31 9-61-2-59-35zM48-53c0 20 12 33 32 33 41-3 63-29 60-74-43 2-92-5-92 41" id="C"/><path fill="#333" d="M106-169C34-169 62-67 57 0H25v-261h32l-1 103c12-21 28-36 61-36 89 0 53 116 60 194h-32v-121c2-32-8-49-39-48" id="D"/><path fill="#333" d="M100-194c62-1 85 37 85 99 1 63-27 99-86 99S16-35 15-95c0-66 28-99 85-99zM99-20c44 1 53-31 53-75 0-43-8-75-51-75s-53 32-53 75 10 74 51 75" id="E"/><path fill="#333" d="M9 0v-24l116-142H16v-24h144v24L44-24h123V0H9" id="F"/><path fill="#333" d="M103-251c84 0 111 97 45 133-19 10-37 24-39 52H78c0-63 77-55 77-114 0-30-21-42-52-43-32 0-53 17-56 46l-32-2c7-45 34-72 88-72zM77 0v-35h34V0H77" id="G"/><g id="f"><use transform="matrix(0.06172839506172839,0,0,0.06172839506172839,0,0)" xlink:href="#C"/><use transform="matrix(0.06172839506172839,0,0,0.06172839506172839,12.345679012345679,0)" xlink:href="#v"/><use transform="matrix(0.06172839506172839,0,0,0.06172839506172839,24.691358024691358,0)" xlink:href="#A"/><use transform="matrix(0.06172839506172839,0,0,0.06172839506172839,30.864197530864196,0)" xlink:href="#D"/><use transform="matrix(0.06172839506172839,0,0,0.06172839506172839,43.20987654320987,0)" xlink:href="#E"/><use transform="matrix(0.06172839506172839,0,0,0.06172839506172839,55.55555555555555,0)" xlink:href="#x"/><use transform="matrix(0.06172839506172839,0,0,0.06172839506172839,62.90123456790123,0)" xlink:href="#w"/><use transform="matrix(0.06172839506172839,0,0,0.06172839506172839,67.77777777777777,0)" xlink:href="#F"/><use transform="matrix(0.06172839506172839,0,0,0.06172839506172839,78.88888888888889,0)" xlink:href="#t"/><use transform="matrix(0.06172839506172839,0,0,0.06172839506172839,91.23456790123457,0)" xlink:href="#y"/><use transform="matrix(0.06172839506172839,0,0,0.06172839506172839,103.58024691358025,0)" xlink:href="#G"/></g><path fill="#333" d="M197 0v-115H63V0H30v-248h33v105h134v-105h34V0h-34" id="H"/><path fill="#333" d="M127-220V0H93v-220H8v-28h204v28h-85" id="I"/><path fill="#333" d="M30-248c87 1 191-15 191 75 0 78-77 80-158 76V0H30v-248zm33 125c57 0 124 11 124-50 0-59-68-47-124-48v98" id="J"/><g id="g"><use transform="matrix(0.06172839506172839,0,0,0.06172839506172839,0,0)" xlink:href="#H"/><use transform="matrix(0.06172839506172839,0,0,0.06172839506172839,15.987654320987653,0)" xlink:href="#I"/><use transform="matrix(0.06172839506172839,0,0,0.06172839506172839,29.50617283950617,0)" xlink:href="#I"/><use transform="matrix(0.06172839506172839,0,0,0.06172839506172839,43.02469135802469,0)" xlink:href="#J"/></g><path fill="#333" d="M101-251c68 0 85 55 85 127S166 4 100 4C33 4 14-52 14-124c0-73 17-127 87-127zm-1 229c47 0 54-49 54-102s-4-102-53-102c-51 0-55 48-55 102 0 53 5 102 54 102" id="K"/><g id="h"><use transform="matrix(0.06172839506172839,0,0,0.06172839506172839,0,0)" xlink:href="#p"/><use transform="matrix(0.06172839506172839,0,0,0.06172839506172839,12.345679012345679,0)" xlink:href="#K"/><use transform="matrix(0.06172839506172839,0,0,0.06172839506172839,24.691358024691358,0)" xlink:href="#K"/></g><path fill="#333" d="M16-82v-28h88v28H16" id="L"/><use transform="matrix(0.06172839506172839,0,0,0.06172839506172839,0,0)" xlink:href="#L" id="i"/><path fill="#333" d="M190 0L58-211 59 0H30v-248h39L202-35l-2-213h31V0h-41" id="M"/><path fill="#333" d="M140-251c81 0 123 46 123 126C263-46 219 4 140 4 59 4 17-45 17-125s42-126 123-126zm0 227c63 0 89-41 89-101s-29-99-89-99c-61 0-89 39-89 99S79-25 140-24" id="N"/><g id="j"><use transform="matrix(0.06172839506172839,0,0,0.06172839506172839,0,0)" xlink:href="#M"/><use transform="matrix(0.06172839506172839,0,0,0.06172839506172839,15.987654320987653,0)" xlink:href="#N"/><use transform="matrix(0.06172839506172839,0,0,0.06172839506172839,33.2716049382716,0)" xlink:href="#L"/><use transform="matrix(0.06172839506172839,0,0,0.06172839506172839,40.61728395061728,0)" xlink:href="#p"/><use transform="matrix(0.06172839506172839,0,0,0.06172839506172839,52.962962962962955,0)" xlink:href="#q"/><use transform="matrix(0.06172839506172839,0,0,0.06172839506172839,65.2469135802469,0)" xlink:href="#r"/></g><g id="k"><use transform="matrix(0.06172839506172839,0,0,0.06172839506172839,0,0)" xlink:href="#p"/><use transform="matrix(0.06172839506172839,0,0,0.06172839506172839,12.345679012345679,0)" xlink:href="#q"/><use transform="matrix(0.06172839506172839,0,0,0.06172839506172839,24.629629629629626,0)" xlink:href="#r"/></g><g id="l"><use transform="matrix(0.06172839506172839,0,0,0.06172839506172839,0,0)" xlink:href="#x"/><use transform="matrix(0.06172839506172839,0,0,0.06172839506172839,7.345679012345679,0)" xlink:href="#t"/><use transform="matrix(0.06172839506172839,0,0,0.06172839506172839,19.691358024691358,0)" xlink:href="#u"/><use transform="matrix(0.06172839506172839,0,0,0.06172839506172839,32.03703703703704,0)" xlink:href="#v"/><use transform="matrix(0.06172839506172839,0,0,0.06172839506172839,44.382716049382715,0)" xlink:href="#w"/><use transform="matrix(0.06172839506172839,0,0,0.06172839506172839,49.25925925925926,0)" xlink:href="#x"/><use transform="matrix(0.06172839506172839,0,0,0.06172839506172839,56.60493827160494,0)" xlink:href="#t"/><use transform="matrix(0.06172839506172839,0,0,0.06172839506172839,68.95061728395062,0)" xlink:href="#y"/><use transform="matrix(0.06172839506172839,0,0,0.06172839506172839,81.2962962962963,0)" xlink:href="#G"/></g><path fill="#333" d="M146-102V0H94v-102L6-248h54l60 105 60-105h54" id="O"/><path fill="#333" d="M185-48c-13 30-37 53-82 52C43 2 14-33 14-96s30-98 90-98c62 0 83 45 84 108H66c0 31 8 55 39 56 18 0 30-7 34-22zm-45-69c5-46-57-63-70-21-2 6-4 13-4 21h74" id="P"/><path fill="#333" d="M137-138c1-29-70-34-71-4 15 46 118 7 119 86 1 83-164 76-172 9l43-7c4 19 20 25 44 25 33 8 57-30 24-41C81-84 22-81 20-136c-2-80 154-74 161-7" id="Q"/><g id="m"><use transform="matrix(0.04938271604938272,0,0,0.04938271604938272,0,0)" xlink:href="#O"/><use transform="matrix(0.04938271604938272,0,0,0.04938271604938272,10.864197530864198,0)" xlink:href="#P"/><use transform="matrix(0.04938271604938272,0,0,0.04938271604938272,20.74074074074074,0)" xlink:href="#Q"/></g><g id="n"><use transform="matrix(0.06172839506172839,0,0,0.06172839506172839,0,0)" xlink:href="#p"/><use transform="matrix(0.06172839506172839,0,0,0.06172839506172839,12.345679012345679,0)" xlink:href="#q"/><use transform="matrix(0.06172839506172839,0,0,0.06172839506172839,24.629629629629626,0)" xlink:href="#r"/></g><path fill="#333" d="M175 0L67-191c6 58 2 128 3 191H24v-248h59L193-55c-6-58-2-129-3-193h46V0h-61" id="R"/><path fill="#333" d="M101-320c28 0 65 44 74 0h23c0 29-10 51-39 51-28-1-66-45-74 0H61c2-28 9-52 40-51zM199 0l-22-63H83L61 0H9l90-248h61L250 0h-51zm-33-102l-36-108c-10 38-24 72-36 108h72" id="S"/><path fill="#333" d="M140-251c80 0 125 45 125 126S219 4 139 4C58 4 15-44 15-125s44-126 125-126zm-1 214c52 0 73-35 73-88 0-50-21-86-72-86-52 0-73 35-73 86s22 88 72 88" id="T"/><g id="o"><use transform="matrix(0.04938271604938272,0,0,0.04938271604938272,0,0)" xlink:href="#R"/><use transform="matrix(0.04938271604938272,0,0,0.04938271604938272,12.790123456790125,0)" xlink:href="#S"/><use transform="matrix(0.04938271604938272,0,0,0.04938271604938272,25.58024691358025,0)" xlink:href="#T"/></g></defs></g></svg>